<?xml version="1.0" standalone="no"?>
<!DOCTYPE svg PUBLIC "-//W3C//DTD SVG 20010904//EN"
 "http://www.w3.org/TR/2001/REC-SVG-20010904/DTD/svg10.dtd">
<svg version="1.0" xmlns="http://www.w3.org/2000/svg"
 width="1500.000000pt" height="1500.000000pt" viewBox="0 0 1500.000000 1500.000000"
 preserveAspectRatio="xMidYMid meet">
<metadata>
Created by potrace 1.14, written by Peter Selinger 2001-2017
</metadata>
<g transform="translate(0.000000,1500.000000) scale(0.100000,-0.100000)"
fill="#000000" stroke="none">
<path d="M6790 14187 c-3 -2 -54 -8 -115 -11 -262 -16 -564 -79 -880 -184
-450 -150 -806 -370 -1026 -635 -164 -198 -311 -481 -333 -644 -3 -21 -10 -75
-16 -120 -28 -215 -80 -320 -275 -554 -204 -245 -266 -383 -271 -609 -5 -175
18 -251 98 -326 129 -121 301 -185 498 -185 159 -1 276 19 600 103 588 151
756 179 1117 182 127 1 250 -14 395 -50 76 -18 72 -9 83 -174 35 -524 52 -641
121 -863 98 -312 307 -469 523 -392 105 37 209 142 382 387 208 294 261 356
280 326 16 -24 40 -120 63 -248 52 -289 164 -541 351 -788 213 -281 502 -498
799 -597 132 -44 207 -55 366 -51 173 4 236 22 311 93 61 57 88 120 94 223 8
115 -7 202 -66 396 -68 221 -86 301 -71 316 21 21 74 9 165 -40 220 -118 451
-296 683 -527 453 -453 745 -918 974 -1555 173 -481 234 -780 190 -935 -20
-70 -48 -87 -206 -125 -77 -18 -185 -50 -241 -71 -451 -175 -765 -598 -764
-1029 1 -230 88 -366 242 -375 79 -4 138 14 268 82 116 61 145 64 230 23 79
-39 156 -50 306 -44 284 10 304 9 373 -20 34 -14 89 -37 122 -51 56 -24 147
-49 380 -105 377 -91 617 -261 723 -515 14 -33 39 -114 57 -179 38 -143 55
-188 92 -243 59 -88 133 -124 246 -119 118 5 172 42 246 166 182 307 242 659
181 1059 -49 317 -246 638 -610 993 -172 167 -277 250 -638 502 l-58 41 6 67
c3 37 8 77 10 90 6 32 42 311 50 378 15 131 14 120 30 330 14 180 17 301 17
615 0 193 -3 400 -6 460 -15 257 -32 491 -41 555 -2 14 -7 52 -10 85 -3 33 -8
71 -10 85 -3 14 -7 48 -11 75 -5 43 -42 290 -60 395 -81 496 -260 1121 -459
1610 -104 254 -139 443 -100 536 21 51 72 69 265 94 205 26 337 54 370 78 79
59 57 258 -52 462 -142 267 -331 465 -589 618 -55 33 -246 127 -319 157 -36
14 -78 32 -95 40 -55 24 -270 93 -361 114 -192 46 -258 50 -789 47 -275 -2
-509 -5 -520 -8 -15 -4 -204 -19 -260 -21 -5 0 -131 45 -280 100 -668 249
-1059 366 -1455 437 -82 15 -111 19 -230 32 -30 3 -65 7 -78 9 -13 2 -65 7
-115 10 -51 4 -108 8 -127 11 -52 6 -764 16 -770 11z m-680 -1613 c19 -4 40
-7 45 -5 6 1 7 -1 3 -5 -4 -4 7 -18 24 -31 18 -12 28 -23 24 -23 -5 0 -2 -7 5
-16 14 -17 22 -157 9 -149 -8 5 -35 -45 -31 -58 1 -5 -3 -6 -9 -2 -5 3 -10 1
-10 -4 0 -6 -3 -10 -7 -9 -13 2 -43 -14 -39 -21 3 -4 -3 -7 -12 -8 -9 0 -30
-1 -47 -2 -44 -3 -116 19 -141 44 -21 20 -53 96 -49 115 2 11 -2 20 -8 20 -8
0 -9 3 -1 8 12 8 36 72 27 72 -4 0 1 6 12 13 10 8 15 19 11 25 -4 7 -2 10 7 6
8 -3 20 2 27 11 7 8 19 15 27 15 8 0 12 4 9 9 -4 5 3 7 13 4 11 -3 28 0 38 5
10 6 22 7 28 2 5 -4 26 -11 45 -16z m4674 -2060 c3 -8 2 -12 -4 -9 -6 3 -10
10 -10 16 0 14 7 11 14 -7z"/>
<path d="M6013 12539 c-47 -14 -83 -62 -83 -113 0 -94 96 -146 178 -96 32 20
62 71 62 105 0 14 -4 13 -26 -4 -35 -27 -65 -27 -92 2 -25 27 -29 69 -7 87 16
13 20 31 8 29 -5 0 -22 -5 -40 -10z"/>
<path d="M1269 11046 c-59 -16 -97 -46 -147 -121 -76 -113 -140 -258 -177
-405 -42 -164 -51 -240 -49 -435 5 -458 182 -809 631 -1246 152 -148 284 -255
522 -421 l173 -122 -6 -61 c-3 -33 -8 -75 -11 -93 -15 -110 -26 -190 -30 -212
-2 -14 -6 -50 -9 -80 -4 -30 -9 -73 -11 -95 -9 -63 -13 -110 -30 -310 -24
-278 -24 -972 0 -1310 10 -136 16 -212 20 -250 2 -22 6 -65 9 -95 5 -54 14
-131 21 -180 1 -14 6 -47 9 -75 4 -27 9 -60 11 -72 3 -12 7 -41 10 -65 3 -24
8 -55 11 -70 3 -15 7 -42 10 -60 3 -18 7 -42 9 -53 2 -11 6 -40 10 -65 3 -25
9 -52 11 -60 3 -8 8 -31 10 -50 6 -45 41 -214 66 -310 10 -41 21 -88 23 -104
2 -16 12 -54 21 -85 10 -31 18 -63 19 -71 1 -8 10 -42 19 -75 9 -33 18 -64 20
-70 5 -20 37 -130 41 -143 3 -7 4 -13 4 -15 0 -5 112 -334 120 -352 5 -11 22
-54 36 -95 15 -41 33 -88 40 -105 109 -264 136 -364 136 -497 0 -103 -16 -140
-71 -162 -31 -12 -143 -31 -300 -51 -25 -3 -72 -10 -105 -16 -33 -5 -70 -12
-83 -14 -13 -2 -43 -13 -67 -25 -34 -16 -47 -30 -56 -58 -75 -228 226 -733
576 -964 317 -210 819 -394 1140 -418 119 -9 934 -5 1025 5 30 3 107 9 170 14
l115 8 275 -102 c403 -151 640 -231 899 -305 374 -107 612 -151 1006 -184 297
-26 992 -26 1095 -1 8 2 44 7 80 10 214 21 651 140 915 250 144 59 315 150
435 231 61 41 117 80 124 87 8 6 37 32 67 57 29 25 76 68 103 95 54 54 206
250 206 264 0 5 6 16 13 23 7 7 24 35 38 61 13 27 36 72 51 100 38 75 86 207
92 258 3 24 8 55 10 69 3 14 7 50 10 80 4 30 12 79 20 108 8 29 14 53 13 55
-1 1 18 41 41 89 36 75 144 234 178 263 25 21 154 189 154 201 0 6 7 17 16 25
43 36 110 219 123 337 15 149 -2 271 -49 345 -63 100 -277 215 -435 233 -91
11 -265 3 -360 -16 -27 -6 -61 -13 -75 -15 -54 -10 -74 -15 -266 -65 -356 -93
-579 -143 -694 -155 -30 -4 -79 -10 -107 -14 -70 -10 -178 -15 -354 -14 -119
1 -169 6 -278 28 -72 16 -138 33 -146 39 -10 8 -16 39 -20 101 -3 50 -8 110
-10 135 -2 25 -7 83 -10 130 -3 47 -7 103 -10 125 -3 22 -7 72 -10 110 -3 39
-15 118 -26 177 -80 434 -246 655 -489 650 -147 -2 -262 -102 -489 -424 -104
-147 -178 -246 -214 -283 -57 -60 -52 -70 -132 298 -44 202 -108 366 -215 542
-246 408 -646 716 -1045 806 -63 14 -311 19 -372 8 -184 -35 -274 -154 -274
-364 0 -95 45 -289 107 -457 8 -21 11 -38 8 -38 -4 0 -2 -6 4 -12 5 -7 13 -35
17 -63 5 -27 9 -55 11 -61 9 -44 -51 -48 -132 -9 -124 59 -396 246 -519 355
-455 403 -787 845 -1015 1350 -118 262 -257 650 -314 876 -69 273 -69 479 1
534 12 10 91 34 175 55 219 53 339 104 498 210 90 60 239 206 302 295 134 190
206 422 196 630 -11 208 -97 326 -244 334 -73 4 -142 -17 -267 -83 -54 -28
-109 -51 -122 -51 -12 0 -67 16 -121 36 -98 36 -100 37 -249 36 -82 0 -190 -3
-239 -5 -100 -4 -132 3 -248 57 -72 34 -218 79 -298 92 -19 3 -43 10 -52 15
-10 5 -18 8 -18 5 0 -7 -174 41 -255 70 -94 34 -222 103 -294 158 -149 115
-234 254 -291 476 -55 209 -105 296 -196 340 -54 27 -149 33 -215 16z m7636
-8279 c22 -3 52 -9 67 -15 31 -13 79 -62 72 -74 -3 -4 -1 -8 4 -8 5 0 9 -6 9
-12 1 -23 8 -43 18 -50 6 -5 5 -8 -3 -8 -7 0 -11 -4 -8 -9 3 -5 -1 -25 -9 -45
-9 -20 -13 -41 -10 -47 4 -5 2 -8 -3 -7 -6 2 -10 -1 -10 -6 -1 -16 -84 -57
-122 -59 -14 -1 -28 -6 -32 -12 -5 -6 -8 -5 -8 3 0 6 -10 12 -23 12 -12 0 -33
7 -45 16 -12 8 -27 12 -32 9 -6 -4 -10 -3 -9 2 4 21 -2 33 -18 33 -9 0 -13 3
-10 7 4 3 1 13 -5 21 -13 15 -20 142 -8 142 4 0 13 14 20 30 7 17 17 30 22 30
5 0 6 5 2 12 -4 6 -3 8 4 4 12 -7 75 27 66 37 -3 3 2 4 13 2 10 -2 36 -6 58
-8z"/>
<path d="M8832 2680 c-32 -19 -62 -71 -62 -105 0 -13 5 -12 29 6 32 24 67 21
95 -7 20 -20 21 -68 1 -84 -23 -19 -8 -30 28 -19 102 28 120 166 27 214 -40
21 -79 19 -118 -5z"/>
<path d="M7120 9178 c-146 -82 -384 -218 -530 -300 -146 -83 -281 -159 -300
-170 -19 -11 -110 -63 -202 -115 -93 -52 -168 -98 -168 -102 0 -4 39 -26 88
-49 48 -22 159 -75 247 -118 88 -42 192 -91 230 -109 39 -18 122 -57 185 -88
63 -30 160 -76 215 -102 55 -26 152 -72 215 -102 399 -191 470 -223 490 -223
10 0 79 38 152 84 73 46 178 112 233 147 55 34 296 186 535 337 239 152 463
293 498 315 34 21 62 41 62 44 0 6 -47 26 -550 240 -239 101 -453 192 -475
202 -22 10 -92 40 -155 66 -63 26 -133 55 -155 65 -142 64 -310 130 -328 129
-12 0 -141 -68 -287 -151z m320 -23 c163 -24 216 -151 90 -215 -194 -99 -489
-13 -422 122 21 41 108 87 184 97 55 7 74 7 148 -4z m580 -241 c218 -79 81
-258 -185 -242 -166 11 -258 105 -183 186 69 73 245 100 368 56z m-1338 -240
c140 -46 145 -156 10 -216 -66 -30 -210 -37 -282 -13 -143 48 -161 151 -38
213 83 41 215 48 310 16z m1873 8 c96 -36 135 -95 99 -150 -24 -37 -40 -48
-103 -72 -121 -46 -300 -23 -363 47 -60 66 -13 137 117 179 54 18 200 15 250
-4z m-1376 -246 c149 -40 185 -131 80 -202 -82 -54 -211 -68 -321 -34 -90 28
-138 82 -118 134 34 90 213 140 359 102z m529 -241 c47 -9 111 -42 133 -69 35
-41 19 -97 -37 -135 -123 -84 -388 -61 -438 38 -56 109 140 204 342 166z"/>
<path d="M9060 8480 c-41 -26 -159 -101 -262 -166 -104 -66 -396 -251 -651
-412 -255 -160 -472 -300 -483 -310 -16 -15 -19 -31 -18 -88 1 -38 5 -298 9
-579 4 -280 8 -591 10 -690 2 -99 4 -264 5 -367 1 -103 5 -190 10 -193 9 -5
1449 948 1463 969 9 13 8 1875 -1 1879 -4 2 -41 -17 -82 -43z m-33 -320 c88
-53 54 -259 -61 -374 -80 -80 -157 -93 -208 -36 -28 30 -32 48 -30 124 2 87
61 200 133 257 64 51 116 60 166 29z m-394 -897 c56 -96 -16 -302 -132 -379
-46 -30 -109 -41 -140 -24 -98 52 -71 263 50 382 87 85 179 94 222 21z m-508
-859 c92 -44 77 -228 -31 -361 -33 -40 -121 -93 -155 -93 -37 0 -72 25 -90 64
-52 117 41 326 172 386 53 24 62 24 104 4z"/>
<path d="M5854 8074 c4 -176 9 -350 11 -389 1 -38 6 -164 9 -280 4 -115 9
-266 11 -335 11 -290 17 -487 16 -512 -1 -32 -5 -29 269 -173 113 -59 241
-127 285 -150 87 -46 254 -133 460 -240 72 -37 162 -84 200 -105 171 -92 424
-220 433 -220 6 0 9 80 7 228 -2 125 -6 423 -10 662 -11 831 -16 1014 -27
1028 -6 7 -34 23 -62 36 -28 13 -130 62 -226 109 -96 46 -209 100 -250 119
-41 20 -127 60 -190 91 -237 113 -363 173 -630 299 -151 72 -284 135 -294 140
-19 10 -19 3 -12 -308z m281 -14 c114 -72 173 -193 166 -343 0 -16 -15 -42
-33 -63 -27 -29 -40 -35 -73 -36 -55 0 -87 14 -141 64 -137 126 -165 336 -53
396 30 16 93 8 134 -18z m1033 -506 c98 -48 171 -164 180 -283 7 -106 -33
-165 -112 -164 -54 1 -92 20 -148 77 -118 120 -144 320 -50 379 38 23 70 21
130 -9z m-520 -331 c51 -24 116 -93 146 -155 27 -56 47 -138 40 -172 -12 -64
-18 -78 -47 -102 -27 -23 -38 -26 -78 -21 -88 11 -163 78 -215 192 -62 135
-22 275 78 275 22 0 56 -8 76 -17z m-489 -333 c42 -21 111 -93 136 -140 41
-80 57 -188 34 -233 -20 -38 -50 -66 -79 -72 -76 -17 -181 56 -241 167 -31 58
-34 70 -34 150 0 82 2 88 29 117 42 44 85 47 155 11z m1062 -545 c150 -104
204 -360 89 -420 -43 -22 -79 -18 -136 15 -147 84 -222 316 -133 411 27 29 33
31 84 27 38 -3 66 -13 96 -33z"/>
</g>
</svg>
